<svg xmlns="http://www.w3.org/2000/svg" xmlns:xlink="http://www.w3.org/1999/xlink" width="500" zoomAndPan="magnify" viewBox="0 0 375 374.999991" height="500" preserveAspectRatio="xMidYMid meet" version="1.0"><defs><clipPath id="78d21951cf"><path d="M 62.355469 56.976562 L 308.367188 56.976562 L 308.367188 186.761719 L 62.355469 186.761719 Z M 62.355469 56.976562 " clip-rule="nonzero"/></clipPath><clipPath id="928c7d4ead"><path d="M 186.28125 63.5625 L 316.066406 63.5625 L 316.066406 309.574219 L 186.28125 309.574219 Z M 186.28125 63.5625 " clip-rule="nonzero"/></clipPath><clipPath id="bd8f1a54fb"><path d="M 63.46875 188.238281 L 309.480469 188.238281 L 309.480469 318.023438 L 63.46875 318.023438 Z M 63.46875 188.238281 " clip-rule="nonzero"/></clipPath><clipPath id="8483a1fcc1"><path d="M 46 169 L 152 169 L 152 244 L 46 244 Z M 46 169 " clip-rule="nonzero"/></clipPath><clipPath id="1d16558cca"><path d="M 131.335938 148.800781 L 156.128906 213.191406 L 51.140625 253.613281 L 26.347656 189.222656 Z M 131.335938 148.800781 " clip-rule="nonzero"/></clipPath></defs><g clip-path="url(#78d21951cf)"><path fill="#c29591" d="M 98.25 186.761719 C 93.59375 186.761719 88.9375 185.789062 84.28125 183.847656 C 66.042969 176.078125 57.507812 155.09375 65.269531 136.828125 C 85.640625 88.257812 132.785156 56.976562 185.359375 56.976562 C 237.9375 56.976562 285.082031 88.257812 305.648438 136.828125 C 313.410156 155.09375 304.871094 176.269531 286.636719 183.847656 C 268.398438 191.621094 247.25 183.070312 239.683594 164.808594 C 230.371094 143.046875 209.03125 128.863281 185.359375 128.863281 C 161.691406 128.863281 140.542969 143.046875 131.230469 164.808594 C 125.605469 178.40625 112.21875 186.761719 98.25 186.761719 Z M 98.25 186.761719 " fill-opacity="1" fill-rule="nonzero"/></g><g clip-path="url(#928c7d4ead)"><path fill="#b6c199" d="M 186.28125 99.457031 C 186.28125 94.800781 187.25 90.144531 189.195312 85.488281 C 196.964844 67.25 217.949219 58.714844 236.210938 66.476562 C 284.785156 86.847656 316.066406 133.992188 316.066406 186.570312 C 316.066406 239.144531 284.785156 286.289062 236.210938 306.855469 C 217.949219 314.617188 196.769531 306.078125 189.195312 287.84375 C 181.421875 269.605469 189.972656 248.457031 208.234375 240.890625 C 229.996094 231.578125 244.179688 210.238281 244.179688 186.570312 C 244.179688 162.898438 229.996094 141.75 208.234375 132.4375 C 194.632812 126.8125 186.28125 113.425781 186.28125 99.457031 Z M 186.28125 99.457031 " fill-opacity="1" fill-rule="nonzero"/></g><g clip-path="url(#bd8f1a54fb)"><path fill="#7d94b5" d="M 273.585938 188.238281 C 278.242188 188.238281 282.898438 189.207031 287.554688 191.152344 C 305.789062 198.921875 314.328125 219.90625 306.566406 238.171875 C 286.195312 286.742188 239.050781 318.023438 186.472656 318.023438 C 133.894531 318.023438 86.75 286.742188 66.1875 238.171875 C 58.425781 219.90625 66.960938 198.730469 85.199219 191.152344 C 103.4375 183.378906 124.582031 191.929688 132.148438 210.191406 C 141.460938 231.953125 162.804688 246.136719 186.472656 246.136719 C 210.144531 246.136719 231.289062 231.953125 240.601562 210.191406 C 246.230469 196.59375 259.617188 188.238281 273.585938 188.238281 Z M 273.585938 188.238281 " fill-opacity="1" fill-rule="nonzero"/></g><g clip-path="url(#8483a1fcc1)"><g clip-path="url(#1d16558cca)"><path fill="#7d94b5" d="M 78.839844 169.011719 L 151.628906 201.527344 L 125.386719 211.632812 L 129.875 223.296875 L 77.390625 243.507812 L 72.902344 231.839844 L 46.660156 241.945312 L 78.839844 169.011719 " fill-opacity="1" fill-rule="nonzero"/></g></g></svg>